<?xml version="1.0" encoding="UTF-8"?>
<svg xmlns="http://www.w3.org/2000/svg" xmlns:xlink="http://www.w3.org/1999/xlink" stroke-linecap="round" stroke-linejoin="round" width="32" height="32" viewBox="0 0 96 96" version="1.1">
    <title>IF97 logo</title>
    <defs>
        <filter id="erode">
            <feMorphology operator="erode" radius="1.0" />
        </filter>
        <filter id="neon" x="-50%" y="-50%" width="200%" height="200%">
            <feColorMatrix type="matrix" values="0 0 0 .3 0 0 0 0 1 0 0 0 0 1 0 0 0 0 1 0" />
            <feGaussianBlur result="blur" stdDeviation="5" />
            <feMerge>
                <feMergeNode in="blur"/>
                <feMergeNode in="blur"/>
                <feMergeNode in="SourceGraphic"/>
            </feMerge>
        </filter>
        <path id="_7" d="M50 400 a25 25 0 0 0 0 50 h200 a75 75 0 0 0 75 -75 V25 a25 25 0 0 0 -50 0 V375 a25 25 0 0 1 -25 25 Z" transform="scale(0.06, -0.06)" />
        <path id="_9" d="M200 200 a25 25 0 0 0 0 -50 h-50 a150 150 0 0 0 0 300 h50 A225 225 0 0 0 200 0 h-50 A25 25 0 0 0 150 50 h50 A175 175 0 0 1 200 400 h-50 A100 100 0 0 1 150 200 Z" transform="scale(0.06, -0.06)" />
        <path id="F" d="M50 25 A25 25 0 0 1 100 25 V375 A25 25 0 0 0 125 400 H250 A25 25 0 0 1 250 450 H125 A75 75 0 0 1 50 375 V25 M300 200 A25 25 0 0 1 300 250 H200 A25 25 0 0 1 200 200 Z" transform="scale(0.06, -0.06)" />
        <path id="I" d="M50 25 A25 25 0 0 1 100 25L100 425 A25 25 0 0 1 50 425 Z" transform="scale(0.06, -0.06)" />
        <path id="a" d="M200 300 h50 a150 150 0 0 0 0 -300 h-100 a100 100 0 0 0 0 200 h100" transform="scale(0.06, -0.06)" />
        <path id="j" d="M150 300 V50 A150 150 0 0 0 0 -100 M150 400 v1" transform="scale(0.06, -0.06)" />
        <path id="v" d="M50 300 L200 0 350 300" transform="scale(0.06, -0.06)" />
    </defs>
    <path d="M0 8 a8 8 0 0 1 8 -8 h80 a8 8 0 0 1 8 8 v80 a8 8 0 0 1 -8 8 h-80 a8 8 0 0 1 -8 -8z
M5 9 a4 4 0 0 1 4 -4 h78 a4 4 0 0 1 4 4 v40 a4 4 0 0 1 -4 4 h-78 a4 4 0 0 1 -4 -4z" fill="#024" fill-rule="evenodd" />
    <g stroke="#357" stroke-width="70" fill="none" filter="url(#erode)">
        <use xlink:href="#j" x="8" y="44" />
        <use xlink:href="#a" x="20" y="44" />
        <use xlink:href="#v" x="44" y="44" />
        <use xlink:href="#a" x="64" y="44" />
    </g>
    <g stroke="#fff" stroke-width="20" fill="#eff" filter="url(#neon)">
        <use xlink:href="#I" x="5" y="89" />
        <use xlink:href="#F" x="15" y="89" />
        <use xlink:href="#_9" x="43" y="89" />
        <use xlink:href="#_7" x="69" y="89" />
    </g>
</svg>
